<?xml version="1.0" encoding="utf-8"?>
<svg version="1.1" xmlns="http://www.w3.org/2000/svg" xmlns:xlink="http://www.w3.org/1999/xlink" x="0px" y="0px"
	 viewBox="0 0 373.1 176.1" style="enable-background:new 0 0 373.1 176.1;" xml:space="preserve">
<style type="text/css">
	.st0{fill:#FFFFFF;}
	.st1{fill-rule:evenodd;clip-rule:evenodd;fill:#FFFFFF;}
</style>
<path class="st0" d="M165.4,65.6c1.1,0,2,0.9,2,2v2.1c0,1.1-0.9,2-2,2s-2-0.9-2-2v-2.1C163.4,66.5,164.3,65.6,165.4,65.6
	 M165.4,87.8c1.1,0,2,0.9,2,2v2.1c0,1.1-0.9,2-2,2s-2-0.9-2-2v-2.1C163.4,88.7,164.3,87.8,165.4,87.8 M165.4,111c1.1,0,2,0.9,2,2
	v59.8c0,1.1-0.9,2-2,2s-2-0.9-2-2V113C163.4,111.9,164.3,111,165.4,111 M165.4,64.3c-1.8,0-3.2,1.5-3.2,3.2v2.1
	c0,1.8,1.5,3.2,3.2,3.2s3.2-1.5,3.2-3.2v-2.1C168.7,65.8,167.2,64.4,165.4,64.3z M165.4,86.5c-1.8,0-3.2,1.5-3.2,3.2v2.1
	c0,1.8,1.5,3.2,3.2,3.2s3.2-1.5,3.2-3.2v-2.1C168.7,88,167.2,86.5,165.4,86.5z M165.4,109.7c-1.8,0-3.2,1.5-3.2,3.2v59.8
	c0,1.8,1.5,3.2,3.2,3.2s3.2-1.5,3.2-3.2V113C168.7,111.2,167.2,109.7,165.4,109.7z"/>
<path class="st0" d="M126,30.4c0.3,0,0.7,0.1,1,0.3l5.4,3.1c1,0.5,1.3,1.8,0.7,2.7c-0.5,1-1.8,1.3-2.7,0.7l-5.4-3.1
	c-1-0.5-1.3-1.8-0.7-2.7C124.7,30.8,125.3,30.4,126,30.4 M150.7,44.6c0.3,0,0.7,0.1,1,0.3l5.4,3.1c1,0.5,1.3,1.8,0.7,2.7
	c-0.5,1-1.8,1.3-2.7,0.7l-5.4-3.1c-1-0.5-1.3-1.8-0.7-2.7C149.3,45,150,44.6,150.7,44.6 M175.3,58.8c0.3,0,0.7,0.1,1,0.3l5.4,3.1
	c1,0.5,1.3,1.8,0.7,2.7c-0.5,1-1.8,1.3-2.7,0.7l-5.4-3.1c-1-0.5-1.3-1.8-0.7-2.7C173.9,59.2,174.6,58.8,175.3,58.8 M199.9,73.1
	c0.4,0,0.7,0.1,1,0.3l5.4,3.1c1,0.5,1.3,1.8,0.7,2.7c-0.5,1-1.8,1.3-2.7,0.7c0,0,0,0,0,0l-5.4-3.1c-1-0.6-1.3-1.8-0.7-2.7
	C198.6,73.4,199.2,73.1,199.9,73.1 M126,29.1L126,29.1c-1.8,0-3.2,1.4-3.2,3.2c0,1.2,0.6,2.2,1.6,2.8l5.4,3.1
	c1.6,0.9,3.5,0.4,4.4-1.2s0.4-3.5-1.2-4.4l-5.4-3.1C127.2,29.3,126.6,29.1,126,29.1L126,29.1z M150.7,43.4L150.7,43.4
	c-1.8,0-3.2,1.4-3.2,3.2c0,1.2,0.6,2.2,1.6,2.8l5.4,3.1c1.6,0.9,3.5,0.4,4.4-1.2s0.4-3.5-1.2-4.4c0,0,0,0,0,0l-5.4-3.1
	C151.8,43.5,151.2,43.4,150.7,43.4L150.7,43.4z M175.3,57.6L175.3,57.6c-1.8,0-3.2,1.4-3.2,3.2c0,1.2,0.6,2.2,1.6,2.8l5.4,3.1
	c1.5,0.9,3.5,0.4,4.4-1.2s0.4-3.5-1.2-4.4c0,0,0,0,0,0l-5.4-3.1C176.4,57.7,175.9,57.6,175.3,57.6L175.3,57.6z M199.9,71.8
	L199.9,71.8c-1.2,0-2.2,0.6-2.8,1.6c-0.9,1.6-0.4,3.5,1.2,4.4l5.4,3.1c1.6,0.9,3.5,0.4,4.4-1.2c0.9-1.6,0.4-3.5-1.2-4.4l-5.4-3.1
	C201.1,72,200.5,71.8,199.9,71.8L199.9,71.8z"/>
<path class="st1" d="M138.1,15.9c2.2-0.8,4.6,0.3,5.4,2.5c0.8,2.2-0.3,4.6-2.5,5.4c-2.2,0.8-4.6-0.3-5.4-2.5
	C134.7,19.1,135.9,16.7,138.1,15.9 M95.1,31.5c2.2-0.8,4.6,0.3,5.4,2.5c0.8,2.2-0.3,4.6-2.5,5.4c-2.2,0.8-4.6-0.3-5.4-2.5
	C91.8,34.8,92.9,32.3,95.1,31.5L95.1,31.5z M181,0.3c2.2-0.8,4.6,0.3,5.4,2.5c0.8,2.2-0.3,4.6-2.5,5.4c-2.2,0.8-4.6-0.3-5.4-2.5
	C177.7,3.5,178.8,1.1,181,0.3L181,0.3z M40.2,51.5l24-8.7c2.2-0.8,4.6,0.3,5.4,2.6c0.8,2.2-0.3,4.6-2.5,5.4l-24,8.7
	c-2.2,0.8-4.6-0.3-5.4-2.5C36.9,54.8,38,52.3,40.2,51.5L40.2,51.5L40.2,51.5z"/>
<path class="st1" d="M149.4,33.7l24-8.7c2.2-0.8,4.6,0.3,5.4,2.5c0.8,2.2-0.3,4.6-2.5,5.4l0,0l-24,8.7c-2.2,0.8-4.6-0.3-5.5-2.5
	C146.1,36.9,147.2,34.5,149.4,33.7C149.4,33.7,149.4,33.7,149.4,33.7 M118.5,45c2.2-0.8,4.6,0.3,5.5,2.5c0.8,2.2-0.3,4.6-2.5,5.5
	c-2.2,0.8-4.6-0.3-5.5-2.5c0,0,0,0,0,0C115.1,48.2,116.3,45.8,118.5,45z M192.4,18.1l24-8.7c2.2-0.8,4.6,0.3,5.4,2.5
	c0.8,2.2-0.3,4.6-2.5,5.4l-24,8.7c-2.2,0.8-4.6-0.3-5.5-2.5C189,21.3,190.2,18.9,192.4,18.1C192.4,18.1,192.4,18.1,192.4,18.1z
	 M63.5,65l24-8.7c2.2-0.8,4.6,0.3,5.4,2.5c0.8,2.2-0.3,4.6-2.5,5.4l-24,8.7c-2.2,0.8-4.6-0.3-5.5-2.5C60.2,68.2,61.3,65.8,63.5,65
	C63.5,65,63.5,65,63.5,65L63.5,65z"/>
<path class="st1" d="M164,51.2c2.2-0.8,4.6,0.3,5.4,2.5c0.8,2.2-0.3,4.6-2.5,5.4c-2.2,0.8-4.6-0.3-5.4-2.5
	C160.6,54.4,161.8,52,164,51.2 M121,66.8c2.2-0.8,4.6,0.3,5.4,2.5c0.8,2.2-0.3,4.6-2.5,5.4c-2.2,0.8-4.6-0.3-5.4-2.5
	C117.7,70.1,118.8,67.6,121,66.8L121,66.8z M249.9,19.9c2.2-0.8,4.6,0.3,5.4,2.5c0.8,2.2-0.3,4.6-2.5,5.4c-2.2,0.8-4.6-0.3-5.4-2.5
	C246.5,23.2,247.7,20.7,249.9,19.9L249.9,19.9z M206.9,35.6c2.2-0.8,4.6,0.3,5.4,2.5c0.8,2.2-0.3,4.6-2.5,5.4
	c-2.2,0.8-4.6-0.3-5.4-2.5C203.6,38.8,204.7,36.4,206.9,35.6z M66.1,86.8l24-8.7c2.2-0.8,4.6,0.3,5.4,2.5s-0.3,4.6-2.5,5.4l-24,8.7
	c-2.2,0.8-4.6-0.3-5.4-2.5C62.7,90.1,63.9,87.6,66.1,86.8L66.1,86.8z"/>
<path class="st1" d="M231.5,49.7c2.2-0.8,4.6,0.3,5.4,2.5c0.8,2.2-0.3,4.6-2.5,5.4c-2.2,0.8-4.6-0.3-5.4-2.5
	C228.2,52.9,229.3,50.5,231.5,49.7 M188.6,65.3c2.2-0.8,4.6,0.3,5.4,2.5c0.8,2.2-0.3,4.6-2.5,5.4c-2.2,0.8-4.6-0.3-5.4-2.5
	C185.2,68.5,186.4,66.1,188.6,65.3z M133.6,85.3l24-8.7c2.2-0.8,4.6,0.3,5.4,2.6c0.8,2.2-0.3,4.6-2.5,5.4l-24,8.7
	c-2.2,0.8-4.6-0.3-5.4-2.5S131.4,86.1,133.6,85.3z"/>
<path class="st1" d="M234.8,71.8c2.2-0.8,4.6,0.3,5.5,2.5c0.8,2.2-0.3,4.6-2.5,5.5c-2.2,0.8-4.6-0.3-5.5-2.5c0,0,0,0,0,0
	C231.5,75.1,232.6,72.6,234.8,71.8 M191.9,87.5c2.2-0.8,4.6,0.3,5.4,2.5c0.8,2.2-0.3,4.6-2.5,5.4c-2.2,0.8-4.6-0.3-5.4-2.5
	C188.5,90.7,189.7,88.3,191.9,87.5L191.9,87.5z M265.8,60.6l24-8.7c2.2-0.8,4.6,0.3,5.4,2.5s-0.3,4.6-2.5,5.4l-24,8.7
	c-2.2,0.8-4.6-0.3-5.4-2.5C262.4,63.8,263.6,61.4,265.8,60.6L265.8,60.6z M136.9,107.4l23.8-8.6c2.1-0.8,4.5,0.1,5.5,2.1
	c1,2.1,0.1,4.7-2,5.7c-0.1,0.1-0.2,0.1-0.4,0.1l-23.8,8.6c-2.1,0.8-4.5-0.1-5.5-2.1c-1-2.1-0.1-4.7,2-5.7
	C136.7,107.5,136.8,107.5,136.9,107.4z"/>
<path class="st0" d="M188.1,130.9h12.7c5.9,0,10.2,0.9,12.8,2.6c2.6,1.7,3.9,4.4,3.9,8.1c0.1,2.2-0.6,4.4-1.9,6.2
	c-1.4,1.7-3.4,2.8-5.6,3.1v0.3c3,0.6,5.2,1.7,6.6,3.4c1.5,1.9,2.3,4.3,2.1,6.8c0.2,3.5-1.3,6.8-4,9c-2.7,2.2-6.4,3.3-11.2,3.3h-15.5
	V130.9z M195.1,148.6h6.7c2.9,0,5.1-0.5,6.4-1.4c1.3-0.9,2-2.5,2-4.7c0.1-1.7-0.7-3.4-2.2-4.4c-1.5-0.9-3.8-1.3-6.9-1.3h-6.1V148.6z
	 M195.1,154.3v13.6h7.4c2.9,0,5.1-0.6,6.6-1.7c1.5-1.1,2.2-2.9,2.2-5.3c0.1-1.9-0.7-3.8-2.3-5c-1.5-1.1-3.8-1.6-6.9-1.6H195.1z"/>
<path class="st0" d="M239.9,150.4l10.1-19.5h7.6l-14.3,26.2v16.6h-7v-16.4l-14.2-26.5h7.6L239.9,150.4z"/>
<path class="st0" d="M260.4,155.5c0-16.8,6.8-25.1,20.5-25.1c1.8,0,3.7,0.1,5.4,0.5v5.7c-1.7-0.5-3.4-0.7-5.2-0.6
	c-4.6,0-8,1.2-10.3,3.7c-2.3,2.5-3.6,6.4-3.8,11.8h0.4c0.9-1.6,2.3-2.8,3.9-3.7c1.8-0.9,3.8-1.4,5.9-1.3c3.9,0,6.9,1.2,9.1,3.6
	c2.2,2.4,3.3,5.6,3.3,9.7c0,4.5-1.3,8-3.8,10.6c-2.5,2.6-5.9,3.9-10.3,3.9c-2.8,0.1-5.6-0.7-8-2.2c-2.3-1.6-4.2-3.8-5.2-6.4
	C260.9,162.4,260.3,158.9,260.4,155.5z M275.3,168.6c2.1,0.1,4.1-0.7,5.5-2.3c1.4-1.9,2.1-4.2,1.9-6.5c0.1-2.1-0.5-4.1-1.8-5.8
	c-1.4-1.5-3.4-2.3-5.4-2.1c-1.4,0-2.8,0.3-4.1,1c-1.2,0.6-2.2,1.5-3,2.6c-0.7,1-1.1,2.2-1.1,3.4c-0.1,2.5,0.7,5,2.2,7
	C270.9,167.6,273,168.6,275.3,168.6z"/>
<path class="st0" d="M332.3,151.9c0,7.1-2,12.5-5.9,16.2c-3.9,3.7-9.6,5.6-17,5.6h-12v-42.8h13.2c6.8,0,12.1,1.8,15.9,5.5
	S332.3,145.2,332.3,151.9z M325,152.1c0-10.3-4.8-15.4-14.4-15.4h-6.1v31.1h5C319.8,167.8,325,162.6,325,152.1L325,152.1z"/>
<path class="st0" d="M373.1,173.7H365l-10.7-17.5l-10.8,17.5H336l14.2-22.2l-13.3-20.6h7.8l9.9,16.2l9.9-16.2h7.6l-13.4,20.7
	L373.1,173.7z"/>
<path class="st0" d="M34,130.9v27.7c0.1,2.9-0.6,5.8-2,8.3c-1.4,2.4-3.4,4.3-5.9,5.5c-2.9,1.3-6,2-9.2,1.9c-5.3,0-9.4-1.4-12.4-4.2
	S0,163.4,0,158.5v-27.6h7V158c0,3.5,0.8,6.1,2.5,7.8c1.6,1.7,4.2,2.5,7.6,2.5c6.6,0,9.9-3.5,9.9-10.4v-27H34z"/>
<path class="st0" d="M69.6,162.1c0.2,3.5-1.4,6.8-4.1,9c-2.8,2.2-6.6,3.3-11.4,3.3c-4.1,0.2-8.1-0.6-11.9-2.3v-6.6
	c2,0.9,4.1,1.7,6.2,2.2c2,0.5,4.1,0.8,6.1,0.8c2.8,0,4.8-0.5,6.1-1.6c1.3-1,2-2.6,2-4.2c0-1.6-0.6-3-1.8-4.1c-1.2-1.1-3.7-2.4-7.5-4
	c-3.9-1.6-6.7-3.4-8.3-5.4c-1.6-2.1-2.5-4.7-2.4-7.3c-0.1-3.3,1.3-6.4,3.8-8.4c2.5-2.1,5.9-3.1,10.2-3.1c4.2,0,8.4,0.9,12.2,2.7
	l-2.2,5.7c-3.2-1.5-6.7-2.3-10.2-2.4c-1.8-0.1-3.7,0.4-5.2,1.5c-1.2,1-1.8,2.4-1.8,3.9c0,1,0.2,2,0.7,2.9c0.6,0.9,1.4,1.7,2.3,2.2
	c1.9,1.1,3.8,2,5.8,2.8c2.4,0.9,4.8,2.2,6.9,3.7c1.4,1,2.5,2.3,3.2,3.8C69.3,158.6,69.7,160.3,69.6,162.1z"/>
<path class="st0" d="M92.7,173.7h-7v-36.8H73.1v-6h32.2v6H92.7V173.7z"/>
<path class="st0" d="M130.1,136.3c-3.7-0.2-7.2,1.4-9.5,4.3c-2.3,2.9-3.5,6.8-3.5,11.8c0,5.3,1.1,9.2,3.3,11.9c2.2,2.7,5.4,4,9.6,4
	c1.8,0,3.5-0.2,5.3-0.5c1.7-0.4,3.5-0.8,5.3-1.4v6c-3.7,1.3-7.5,2-11.4,1.9c-6.3,0-11.1-1.9-14.4-5.7c-3.4-3.8-5-9.2-5-16.3
	c-0.1-4,0.7-8,2.4-11.7c1.5-3.2,4-5.9,7.1-7.7c3.3-1.8,7.1-2.8,10.9-2.7c4.2,0,8.4,0.9,12.1,2.8l-2.5,5.8c-1.5-0.7-3-1.3-4.6-1.8
	C133.5,136.5,131.8,136.3,130.1,136.3z"/>
</svg>
